<svg id="visual" viewBox="0 0 1920 1080" width="1920" height="1080" xmlns="http://www.w3.org/2000/svg" xmlns:xlink="http://www.w3.org/1999/xlink" version="1.1"><rect x="0" y="0" width="1920" height="1080" fill="#ffffff"></rect><path d="M0 801L45.7 825.2C91.3 849.3 182.7 897.7 274.2 923.3C365.7 949 457.3 952 548.8 932.7C640.3 913.3 731.7 871.7 823 865C914.3 858.3 1005.7 886.7 1097 895.7C1188.3 904.7 1279.7 894.3 1371.2 902.2C1462.7 910 1554.3 936 1645.8 942.3C1737.3 948.7 1828.7 935.3 1874.3 928.7L1920 922L1920 1081L1874.3 1081C1828.7 1081 1737.3 1081 1645.8 1081C1554.3 1081 1462.7 1081 1371.2 1081C1279.7 1081 1188.3 1081 1097 1081C1005.7 1081 914.3 1081 823 1081C731.7 1081 640.3 1081 548.8 1081C457.3 1081 365.7 1081 274.2 1081C182.7 1081 91.3 1081 45.7 1081L0 1081Z" fill="#194874" stroke-linecap="round" stroke-linejoin="miter"></path></svg>